<?xml version="1.0" encoding="UTF-8"?>
<!DOCTYPE svg PUBLIC "-//W3C//DTD SVG 1.1//EN" "http://www.w3.org/Graphics/SVG/1.1/DTD/svg11.dtd">
<svg xmlns="http://www.w3.org/2000/svg" version="1.1" width="1080px" height="1080px" style="shape-rendering:geometricPrecision; text-rendering:geometricPrecision; image-rendering:optimizeQuality; fill-rule:evenodd; clip-rule:evenodd" xmlns:xlink="http://www.w3.org/1999/xlink">
<g><path style="opacity:1" fill="#3a9ee9" d="M 606.5,81.5 C 634.833,81.5 663.167,81.5 691.5,81.5C 688.109,125.862 684.442,170.195 680.5,214.5C 786.619,234.127 858.453,294.46 896,395.5C 913.315,445.39 923.315,496.723 926,549.5C 931.778,617.181 926.111,683.848 909,749.5C 891.809,809.897 863.142,863.897 823,911.5C 766.915,970.978 698.082,995.811 616.5,986C 550.05,976.202 496.55,944.702 456,891.5C 407.866,826.141 379.532,752.807 371,671.5C 364.235,602.792 366.902,534.459 379,466.5C 388.376,414.009 407.709,365.676 437,321.5C 474.122,270.495 523.288,236.662 584.5,220C 595.407,217.023 606.407,214.523 617.5,212.5C 613.448,168.876 609.781,125.21 606.5,81.5 Z M 615.5,261.5 C 616.725,262.152 617.392,263.319 617.5,265C 613.638,366.823 609.972,468.657 606.5,570.5C 634.833,570.5 663.167,570.5 691.5,570.5C 688.142,467.486 684.476,364.486 680.5,261.5C 730.582,282.972 768.749,317.639 795,365.5C 817.684,409.559 832.017,456.226 838,505.5C 846.849,570.884 846.515,636.218 837,701.5C 830.255,751.747 813.255,798.08 786,840.5C 777.088,852.75 767.421,864.417 757,875.5C 756.5,791.501 756.333,707.501 756.5,623.5C 699.163,623.167 641.829,623.5 584.5,624.5C 580.962,678.176 574.462,731.509 565,784.5C 561.194,804.391 555.528,823.724 548,842.5C 543.898,851.929 538.231,860.262 531,867.5C 501.197,832.565 480.864,792.565 470,747.5C 457.279,693.907 451.946,639.573 454,584.5C 454.157,526.396 463.157,469.73 481,414.5C 497.226,366.175 524.726,325.675 563.5,293C 579.733,280.715 597.066,270.215 615.5,261.5 Z M 624.5,661.5 C 652.741,661.172 680.907,661.505 709,662.5C 709.667,744.167 709.667,825.833 709,907.5C 689.626,916.742 669.126,921.076 647.5,920.5C 617.233,920.853 589.567,912.687 564.5,896C 574.435,885.973 582.268,874.473 588,861.5C 600.89,828.273 609.557,793.939 614,758.5C 618.424,726.259 621.924,693.926 624.5,661.5 Z"/></g>
</svg>
